<svg xmlns="http://www.w3.org/2000/svg" viewBox="0 0 175.69 84.95"><title>logo_full</title><path d="M49.93,43.49A31.31,31.31,0,0,1,45.59,40a17.3,17.3,0,0,0,5.91-1.82c.43-.19.84-.38,1.25-.55a2.56,2.56,0,0,0,1.54-2.79L48.73,2.13A2.56,2.56,0,0,0,44,1.27L39.26,9.4l-1.82.31L32.7,2A2.55,2.55,0,0,0,28,2.84c-.07.34-1.31,7.32-1.91,11C15.63,18.59,8.69,30.21,8.69,43.24c0,.82,0,1.64.11,2.45a24.64,24.64,0,0,0-6.93,17C1.87,74.87,11.6,85,23.13,85H58.26a2.41,2.41,0,0,0,2.37-1.41,40.67,40.67,0,0,0,2.48-13.76C63.11,59.41,58,49.16,49.93,43.49ZM30.34,79.73c-.05.09-.1.1-.14.1H23.13C14.53,79.83,7,71.94,7,62.72A20.69,20.69,0,0,1,10,52.17a30,30,0,0,0,1.17,3.25,2.57,2.57,0,0,0,3.36,1.37,2.54,2.54,0,0,0,1.33-3.35,25.64,25.64,0,0,1-2.09-10.2c0-11.5,6.24-21.64,15.52-25.24a2.55,2.55,0,0,0,1.61-2c.16-1.1.54-3.33.93-5.6L34,13.85A2.58,2.58,0,0,0,36.59,15l4.7-.8A2.56,2.56,0,0,0,43.07,13l1.8-3.08,4,23.76a10.35,10.35,0,0,1-4.14,1.18c-2.4,0-4.16-1.09-6.74-4.14a2.2,2.2,0,0,0-.45-.41C36.49,29,35.24,27.59,33.77,26a2.57,2.57,0,0,0-4.17.66l-2.28,4.77L22.09,34a2.55,2.55,0,0,0-1.32,1.57l-2.58,8.62a2.62,2.62,0,0,0,.06,1.66,10.13,10.13,0,0,0,6.59,5.63,22.62,22.62,0,0,0-1.43,7.34,14,14,0,0,0,5,10.68,8.32,8.32,0,0,1,2.95,6.33A7.59,7.59,0,0,1,30.34,79.73Zm26.11.57H52.54a2.58,2.58,0,0,0-.39,0,6.8,6.8,0,0,1-6.62-6.79A6.59,6.59,0,0,1,51.89,67a2.65,2.65,0,0,0,2.59-2.42,2.56,2.56,0,0,0-2.61-2.7A11.63,11.63,0,0,0,42.62,80.3H35.8a13,13,0,0,0,.71-4.24,13.72,13.72,0,0,0-4.8-10.35A8.77,8.77,0,0,1,28.53,59a17.42,17.42,0,0,1,1.39-6.19,7.93,7.93,0,0,1,1-1.58,2.34,2.34,0,0,0,.45-1.53,2.46,2.46,0,0,0-2.68-2.26h-.07a6.85,6.85,0,0,1-5.19-2.48l2-6.72,5-2.47a2.57,2.57,0,0,0,1.18-1.19l1-2.14c1.72,2,3.07,3.71,4.32,5.29,3,3.8,5.32,6.8,10.11,10.07C53.68,52.49,58,61.2,58,70A37.85,37.85,0,0,1,56.45,80.3Z" fill="#24a8ea"/><path d="M70.19,68.67a2.56,2.56,0,0,0-2.73,2.38,52.12,52.12,0,0,1-1.86,10.4,2.55,2.55,0,0,0,1.77,3.15,2.4,2.4,0,0,0,.69.1,2.57,2.57,0,0,0,2.47-1.87,57.24,57.24,0,0,0,2-11.43A2.55,2.55,0,0,0,70.19,68.67Z" fill="#24a8ea"/><path d="M55.44,43.12c.09.05,9.52,5.86,11.68,19.41a2.56,2.56,0,0,0,2.53,2.16l.4,0a2.55,2.55,0,0,0,2.12-2.93c-2.53-15.88-13.63-22.71-14.1-23a2.56,2.56,0,0,0-2.63,4.39Z" fill="#24a8ea"/><path d="M2.56,38.92a2.57,2.57,0,0,0,2.55-2.34,34.18,34.18,0,0,1,9.5-19.07A2.56,2.56,0,1,0,11,13.92,39.19,39.19,0,0,0,0,36.14a2.57,2.57,0,0,0,2.33,2.77Z" fill="#24a8ea"/><path d="M102,62.4H97.37V58.94H87.23V62.4H82.64V55.08h1.44A26.93,26.93,0,0,0,86.66,49,36.78,36.78,0,0,0,88,41.53h11.6V55.08H102Zm-7.12-7.32v-9.7h-3.1a29,29,0,0,1-2.68,9.7Z"/><path d="M119.87,50.21c0,2.93-.72,5.15-2.15,6.68s-3.54,2.28-6.31,2.28a8.23,8.23,0,0,1-6.28-2.29c-1.46-1.53-2.19-3.77-2.19-6.69s.72-5.11,2.17-6.64,3.56-2.29,6.32-2.29,4.87.75,6.3,2.27S119.87,47.27,119.87,50.21Zm-12,0q0,5.06,3.52,5A3,3,0,0,0,114.05,54a6.67,6.67,0,0,0,.87-3.82,6.7,6.7,0,0,0-.88-3.85,3,3,0,0,0-2.61-1.25Q107.89,45.11,107.89,50.21Z"/><path d="M135.17,53.28a5,5,0,0,1-1.88,4.2,8.67,8.67,0,0,1-5.41,1.46H122.3V41.53h11.45V45.3H127V48h.68a9.65,9.65,0,0,1,5.56,1.33A4.53,4.53,0,0,1,135.17,53.28Zm-8.15,2h.63a3.59,3.59,0,0,0,2.12-.49,1.71,1.71,0,0,0,.65-1.44,1.56,1.56,0,0,0-.69-1.41,3.9,3.9,0,0,0-2.1-.45H127Z"/><path d="M150,47.07a5.81,5.81,0,0,1-1.72,4.5,7,7,0,0,1-4.89,1.59H142v5.78h-4.7V41.53h6a7.35,7.35,0,0,1,5,1.44A5.13,5.13,0,0,1,150,47.07ZM142,49.33h.86a2.33,2.33,0,0,0,1.68-.6,2.13,2.13,0,0,0,.63-1.64c0-1.17-.65-1.76-1.95-1.76H142Z"/><path d="M168.46,50.21c0,2.93-.72,5.15-2.16,6.68s-3.54,2.28-6.31,2.28a8.26,8.26,0,0,1-6.28-2.29c-1.46-1.53-2.19-3.77-2.19-6.69s.73-5.11,2.18-6.64A8.28,8.28,0,0,1,160,41.26c2.77,0,4.87.75,6.3,2.27S168.46,47.27,168.46,50.21Zm-12,0q0,5.06,3.51,5A3,3,0,0,0,162.64,54a6.76,6.76,0,0,0,.86-3.82,6.79,6.79,0,0,0-.87-3.85A3,3,0,0,0,160,45.11Q156.49,45.11,156.48,50.21Z"/><path d="M82.64,67.15h6.08A10.2,10.2,0,0,1,94,68.21a3.56,3.56,0,0,1,1.72,3.28A4.16,4.16,0,0,1,95,74a3.33,3.33,0,0,1-2,1.33v.12a4,4,0,0,1,2.34,1.43,4.25,4.25,0,0,1,.73,2.59,4.45,4.45,0,0,1-1.78,3.74,7.85,7.85,0,0,1-4.85,1.36H82.64Zm4.71,6.68h1.41a2.55,2.55,0,0,0,1.57-.42,1.43,1.43,0,0,0,.55-1.23c0-1-.74-1.47-2.21-1.47H87.35Zm0,3.44v3.66H89c1.47,0,2.2-.62,2.2-1.86a1.57,1.57,0,0,0-.59-1.33,2.69,2.69,0,0,0-1.7-.47Z"/><path d="M106.18,84.56,102.62,72h-.1c.16,2.14.25,3.8.25,5v7.56H98.6V67.15h6.26l3.63,12.36h.1l3.56-12.36h6.27V84.56H114.1V76.93c0-.4,0-.84,0-1.33s.06-1.67.16-3.56h-.11l-3.51,12.52Z"/><path d="M132.27,84.56H121.94V67.15h10.33v3.78h-5.63v2.73h5.22v3.78h-5.22v3.28h5.63Z"/><path d="M142.8,70.76a3,3,0,0,0-2.62,1.37,6.74,6.74,0,0,0-.94,3.8c0,3.35,1.28,5,3.82,5a8,8,0,0,0,2.24-.32,21,21,0,0,0,2.18-.77v4a11.92,11.92,0,0,1-4.93,1,7.82,7.82,0,0,1-6-2.29c-1.4-1.52-2.1-3.73-2.1-6.61a10.54,10.54,0,0,1,1-4.75A7.32,7.32,0,0,1,138.36,68a8.87,8.87,0,0,1,4.49-1.1,12.33,12.33,0,0,1,5.39,1.23l-1.44,3.7a16.42,16.42,0,0,0-1.93-.76A6.6,6.6,0,0,0,142.8,70.76Z"/><path d="M158.89,84.56h-4.71V71h-4.25V67.15h13.2V71h-4.24Z"/><path d="M175.69,84.56H165.36V67.15h10.33v3.78h-5.63v2.73h5.21v3.78h-5.21v3.28h5.63Z"/></svg>